PathFileType	4	(X/Y/Z)	D:\TRACE\spotREDO_2-26-24\spot_Both_Motion_1_9-platform.trc
DataRate	CameraRate	NumFrames	NumMarkers	Units	OrigDataRate	OrigDataStartFrame	OrigNumFrames
100.00	100.00	      73	5	mm	100.00	3501	      7000
Frame#	Time	Left_Front			Right_Front			Left_Aft			Right_Aft			Post			
		X1	Y1	Z1	X2	Y2	Z2	X3	Y3	Z3	X4	Y4	Z4	X5	Y5	Z5	

3501	35.000	-737.89764	5.59555	-573.07520	676.84595	12.97325	-488.93893	-809.37152	-5.94773	645.61334	760.80255	1.08306	649.55524	-28.25119	639.16919	-969.10333	
3502	35.010	-737.40802	5.84736	-573.01361	677.32532	13.34528	-488.70804	-808.77014	-6.39017	645.69623	761.20148	0.78426	649.63440	-28.24447	639.72986	-968.99438	
3503	35.020	-736.80353	6.38386	-572.88892	677.68799	13.52236	-488.51053	-808.23920	-6.76743	645.66913	761.87585	0.48044	649.66443	-27.60543	640.47321	-968.71997	
3504	35.030	-736.42377	6.60587	-572.91876	678.14539	13.70495	-488.37161	-807.66516	-6.97100	645.68549	762.44788	0.14998	649.77679	-27.19337	640.98840	-968.55383	
3505	35.040	-735.79761	6.88860	-572.81018	679.07013	13.74854	-488.22418	-807.07965	-7.20760	645.71112	763.10120	-0.05015	649.81482	-26.45995	641.39282	-968.18713	
3506	35.050	-735.31232	7.42471	-572.81177	679.52454	14.06843	-488.21930	-806.40399	-7.44858	645.81519	763.73676	-0.36949	649.95917	-25.35338	641.63391	-967.72601	
3507	35.060	-734.70178	7.67699	-572.72656	680.01031	14.38574	-488.32333	-805.74707	-7.91028	646.06171	764.48230	-0.62190	650.05798	-25.06706	642.19586	-967.66656	
3508	35.070	-733.95447	7.94973	-572.57434	680.85986	14.92192	-487.73056	-805.13666	-8.18937	646.11914	765.23828	-0.95505	650.08893	-24.54199	642.95471	-967.30371	
3509	35.080	-733.27411	8.14174	-572.46967	681.64258	15.21942	-487.68423	-804.49835	-8.42766	646.16010	765.59088	-1.21379	650.12982	-23.91436	643.40045	-966.84387	
3510	35.090	-732.74084	8.51586	-572.40930	682.47034	15.26955	-487.61700	-803.95026	-8.67233	646.27710	766.22668	-1.66648	650.24945	-23.26172	643.68933	-966.15143	
3511	35.100	-732.09296	8.76737	-572.26453	683.00677	15.45186	-487.46216	-803.28149	-9.04204	646.36609	767.02490	-2.01289	650.29639	-22.71387	644.21667	-965.78302	
3512	35.110	-731.50397	9.00727	-572.22095	683.45813	16.00768	-487.45276	-802.61639	-9.50961	646.50220	767.65155	-2.23147	650.25269	-22.16999	644.86346	-965.23468	
3513	35.120	-730.90765	9.41774	-572.17572	684.23901	16.41445	-487.61316	-801.80908	-9.76530	646.56317	768.26996	-2.53630	650.27667	-21.52629	645.33582	-964.58759	
3514	35.130	-729.99365	9.74505	-572.06793	684.97522	16.56447	-487.27487	-801.31573	-9.89640	646.48047	768.82562	-2.96968	650.34613	-20.40403	645.80933	-964.08215	
3515	35.140	-729.34882	9.97751	-571.82855	685.61884	16.83710	-487.31226	-800.53839	-10.13207	646.67511	769.46594	-3.36541	650.45807	-20.08990	646.31934	-964.03113	
3516	35.150	-728.76678	10.08789	-571.83191	686.38916	17.05169	-487.24969	-800.07642	-9.97694	646.76874	770.27661	-3.77964	650.64478	-19.49936	646.68335	-963.68256	
3517	35.160	-727.73541	10.40343	-571.76971	686.91937	17.37476	-487.25723	-799.02820	-10.99495	646.84924	770.82776	-3.83561	650.81403	-18.43987	647.39178	-963.16766	
3518	35.170	-727.22736	10.59992	-571.74878	687.65436	17.78054	-487.21021	-798.23163	-11.31996	646.74908	771.76563	-4.01163	650.91144	-17.51676	647.81439	-962.75885	
3519	35.180	-726.36676	10.85004	-571.55005	688.58527	18.03628	-486.96887	-797.67157	-11.43053	646.88202	772.58252	-4.23076	650.92352	-17.18113	648.17987	-962.74054	
3520	35.190	-725.61328	11.23720	-571.37610	689.30780	18.09113	-486.93250	-797.09680	-11.78872	646.82019	773.17664	-4.56649	650.97583	-16.15615	648.57385	-962.39044	
3521	35.200	-724.91962	11.70029	-571.78876	689.83740	18.19110	-486.80466	-796.37524	-11.79988	646.78827	773.90253	-4.83500	651.03491	-15.60606	649.00403	-962.03632	
3522	35.210	-724.16199	11.76249	-571.57629	690.71460	18.29443	-486.77554	-795.27722	-12.34670	647.01672	774.84924	-4.99013	651.11774	-14.57372	649.41858	-961.34430	
3523	35.220	-723.23254	11.96432	-571.65485	691.89496	18.58501	-486.42804	-794.49976	-12.57440	647.04755	775.70557	-5.15123	651.13660	-14.35197	649.93060	-961.26410	
3524	35.230	-722.53265	12.30078	-571.50775	692.38794	18.89523	-486.47781	-793.78625	-12.72321	647.11359	776.51428	-5.46270	651.10480	-13.38549	650.30237	-960.83649	
3525	35.240	-721.57782	12.51569	-571.24493	693.30145	18.97408	-486.37982	-792.98944	-13.00650	647.21844	777.40149	-5.71451	651.21222	-12.48052	650.62555	-960.56842	
3526	35.250	-721.06049	12.88107	-571.14087	694.16656	19.26694	-486.50879	-792.18628	-13.12816	647.20526	778.16254	-6.06438	651.30463	-11.26115	651.05853	-960.22900	
3527	35.260	-719.90131	13.30432	-571.33209	694.95874	19.37447	-486.30692	-791.29297	-13.44491	647.27246	778.90002	-6.30706	651.33337	-10.70221	651.39575	-960.09802	
3528	35.270	-719.39587	13.48304	-571.30414	695.80115	19.83851	-486.22992	-790.40015	-13.80006	647.39288	779.96320	-6.58950	651.44928	-9.94637	651.77020	-959.82251	
3529	35.280	-718.37012	13.47385	-571.31067	696.54822	19.78715	-486.15707	-789.64032	-13.93721	647.37390	780.48071	-6.44423	651.58545	-9.25631	652.23041	-959.40088	
3530	35.290	-717.58826	13.74814	-571.25262	697.35883	19.81084	-485.99051	-788.88727	-14.10451	647.59174	781.46912	-7.15259	651.34760	-8.45848	652.54004	-959.02777	
3531	35.300	-716.75494	14.08449	-571.14264	698.49768	20.05985	-485.97626	-788.11945	-14.49313	647.51880	782.28516	-7.38264	651.35614	-7.49225	653.01709	-958.66949	
3532	35.310	-715.94159	14.34587	-570.88177	699.17200	20.43210	-486.03244	-787.09265	-14.70487	647.56323	783.08551	-7.80010	651.36292	-6.50596	653.29761	-958.55597	
3533	35.320	-714.95099	14.60852	-570.82513	699.75232	20.73172	-485.99149	-786.04901	-15.10005	647.60248	784.20160	-8.27066	651.62860	-5.75668	653.73749	-958.35541	
3534	35.330	-714.21808	14.82377	-570.78510	701.29132	20.91023	-485.62158	-785.32739	-15.30654	647.67322	784.91534	-7.90899	651.78986	-4.90515	654.38916	-957.69989	
3535	35.340	-713.39160	15.23005	-570.44666	701.84973	21.20462	-485.62079	-784.45819	-15.44184	647.85199	785.93170	-8.12378	651.93976	-3.98243	654.92688	-957.57520	
3536	35.350	-712.60242	15.49914	-570.40912	702.47504	21.39016	-485.66296	-783.56122	-15.71177	647.85992	786.64331	-8.45244	651.96899	-3.12856	655.19525	-957.13379	
3537	35.360	-711.46210	15.68540	-570.38660	703.54138	21.64227	-485.87708	-782.46588	-15.95953	647.98071	787.54443	-8.85488	651.99683	-2.15041	655.40631	-956.57520	
3538	35.370	-710.54150	15.82081	-570.56653	704.23029	21.92195	-485.64218	-781.54871	-16.37703	647.96411	788.08191	-9.13304	652.03766	-1.20931	655.88702	-955.98822	
3539	35.380	-709.82379	16.12573	-570.55121	705.36841	21.96127	-485.73779	-780.92426	-16.63990	648.08435	789.36542	-9.17212	652.20654	-0.47536	656.30511	-955.62817	
3540	35.390	-708.81824	16.37256	-570.60516	706.03558	22.27696	-485.66794	-780.06042	-16.68229	648.10132	790.29785	-9.24448	652.25549	0.42541	656.69141	-955.33923	
3541	35.400	-707.83691	16.45473	-570.43585	707.00488	22.44587	-485.37589	-779.02777	-16.64996	648.20367	791.20325	-9.36027	652.27588	1.28600	656.94482	-955.05835	
3542	35.410	-706.93164	16.63725	-570.34003	708.03693	22.56768	-485.36105	-778.20789	-16.86428	648.17908	792.35992	-9.52258	652.25537	2.40231	657.14612	-954.91711	
3543	35.420	-706.10358	16.77753	-570.24377	708.92725	22.40603	-485.27823	-777.13092	-17.30626	648.12769	793.03851	-9.75645	652.25104	3.25144	657.33124	-954.80975	
3544	35.430	-705.17065	16.86135	-570.15210	710.25958	22.60336	-485.07315	-776.34033	-17.45513	648.14740	793.89838	-9.97899	652.25122	4.17596	657.73352	-954.73944	
3545	35.440	-704.12073	17.19054	-570.08405	710.99030	22.81733	-485.04349	-775.04706	-17.53909	648.38037	794.84174	-10.33698	652.36365	5.19949	657.75800	-954.81213	
3546	35.450	-703.03906	17.39501	-569.93585	711.74011	23.04091	-485.04648	-774.13910	-17.88909	648.44342	795.77264	-10.51786	652.39001	6.02000	658.36493	-954.93689	
3547	35.460	-702.25610	17.60846	-569.95795	712.97162	23.23236	-485.06299	-773.37073	-17.99032	648.43622	797.05634	-10.93739	652.29962	7.16167	658.74194	-954.79492	
3548	35.470	-701.28235	17.81871	-569.95569	713.72504	23.50225	-484.94629	-772.43945	-18.19076	648.54840	797.79376	-11.22401	652.44580	8.05946	659.05286	-954.44971	
3549	35.480	-700.44525	18.07631	-570.10358	714.74457	23.57133	-484.88910	-771.61224	-18.32385	648.46954	798.69043	-11.34110	652.31647	8.90631	659.33221	-953.84131	
3550	35.490	-699.26459	18.27996	-569.97723	715.61877	23.98147	-485.05469	-770.35999	-18.68524	648.77759	799.95435	-11.47042	652.43707	9.83724	659.72888	-953.51202	
3551	35.500	-698.55853	18.61256	-569.86969	716.63794	24.03808	-484.67047	-769.50922	-19.14282	648.55505	800.55640	-11.59401	652.33984	10.99160	660.10559	-952.90131	
3552	35.510	-697.37079	18.91122	-569.77417	717.56671	24.35296	-484.75287	-768.61877	-19.00340	648.70483	801.72156	-11.69816	652.59009	11.68759	660.34961	-952.44409	
3553	35.520	-696.71893	19.01392	-569.96918	718.29840	24.50417	-484.80731	-767.60901	-19.16344	648.65112	802.51215	-11.92621	652.67310	12.65876	660.85077	-951.96930	
3554	35.530	-695.54828	19.27770	-569.98749	719.29156	24.66414	-484.84900	-766.94226	-19.20883	648.50995	803.52905	-12.31656	652.86597	13.66099	661.21259	-951.42670	
3555	35.540	-694.46320	18.87081	-569.48297	720.47382	24.69754	-484.68286	-765.72821	-19.61505	648.59924	804.47223	-12.30709	652.86078	14.55304	661.41174	-951.12280	
3556	35.550	-693.33942	18.90280	-569.32727	721.21210	24.90790	-484.66772	-764.48706	-19.96876	648.81543	805.34760	-12.43067	652.81769	15.60914	661.62189	-950.88989	
3557	35.560	-692.54059	19.37735	-569.27924	722.63196	25.13595	-484.42133	-763.77448	-20.00950	648.77026	806.31689	-12.66596	652.93781	16.57241	661.94098	-951.00470	
3558	35.570	-691.78802	19.88049	-569.48114	723.32983	25.25148	-484.47119	-762.84839	-20.22052	648.97284	807.32990	-12.74154	653.02423	17.47483	662.22180	-951.12628	
3559	35.580	-690.80225	19.92769	-569.46735	724.01776	25.33875	-484.65054	-761.88196	-20.26764	648.98859	808.38855	-12.73922	653.09686	18.29939	662.29187	-951.44965	
3560	35.590	-689.53729	19.87496	-569.55316	725.20343	25.57128	-484.64914	-760.84729	-20.36404	648.90814	809.31079	-12.88367	653.06049	19.24448	662.43781	-951.41595	
3561	35.600	-688.77686	20.04344	-569.37720	726.20752	25.49380	-484.37668	-759.82489	-20.69994	648.91779	810.32758	-13.04287	653.00470	20.46725	662.63843	-951.30914	
3562	35.610	-687.96997	20.30890	-569.35492	727.23413	25.72744	-484.46649	-758.90247	-20.71809	648.96216	811.49384	-13.08116	653.02588	21.40597	662.71552	-951.28094	
3563	35.620	-687.08972	20.41524	-569.16968	728.18372	25.69850	-484.25244	-757.63367	-20.65554	649.04028	812.26404	-13.26364	653.10809	22.63474	663.03436	-951.07953	
3564	35.630	-686.08087	20.78320	-569.15912	729.26721	25.82784	-484.18774	-756.76227	-20.94382	648.95441	813.30664	-13.44699	653.08044	23.48269	663.23993	-950.79156	
3565	35.640	-685.16608	20.81624	-569.12213	730.00818	26.01042	-484.41498	-756.14178	-21.07192	649.00812	814.19531	-13.60830	653.13275	24.30865	663.45868	-950.26868	
3566	35.650	-684.28619	20.87730	-569.04578	730.73175	26.21509	-484.45389	-754.96796	-21.31292	649.03809	815.02277	-13.76118	653.02551	25.11790	663.69464	-949.83563	
3567	35.660	-683.18390	21.11493	-569.17255	732.16858	26.45172	-484.12067	-754.11652	-21.26574	649.15112	816.09491	-13.86159	653.00824	26.20229	664.07690	-949.21552	
3568	35.670	-682.23950	21.30256	-569.08307	733.05328	26.44405	-483.96338	-753.22351	-21.49941	649.20471	817.12683	-14.14740	652.87732	27.12335	664.38361	-949.15527	
3569	35.680	-681.20197	21.39790	-568.87103	733.77203	26.55596	-484.06046	-752.02435	-21.69546	649.29150	817.97015	-14.29298	652.98029	27.97156	664.56415	-948.91406	
3570	35.690	-680.31500	21.98221	-569.04523	735.24487	26.52640	-483.72287	-751.18030	-21.82137	649.26630	819.18689	-14.38591	653.16626	29.38624	664.95349	-948.49988	
3571	35.700	-679.13910	21.10484	-568.69196	735.94409	26.57683	-483.81348	-750.18579	-22.10138	649.30383	819.95581	-14.51482	653.35364	29.89870	665.29462	-948.33124	
3572	35.710	-678.14362	21.39484	-568.68854	736.84607	26.88212	-483.90247	-749.37408	-22.22857	649.32928	820.87488	-14.83423	653.34259	30.87103	665.53467	-948.31757	
3573	35.720	-677.26917	21.49981	-568.63599	737.89563	27.15438	-483.66641	-748.38159	-22.40590	649.32806	821.86743	-14.92918	653.24518	31.87714	665.64838	-948.37299	
